#!OML:ASF I:\Actors\actors\Patient Classification 2\Patient 1\Session 1\actor1.ASF
:FULLY-SPECIFIED
:DEGREES
877
root -0.543572 18.4472 6.64838 -6.14786 -2.2471 -5.29702
lowerback 3.86187 4.16333 -0.583138
upperback 4.94535 5.55132 -0.22441
thorax 2.90116 2.76388 0.0233639
lowerneck -5.92891 5.53725 4.57991
upperneck 33.3176 13.3231 -17.1063
head 13.9362 4.62258 -5.88617
rclavicle 7.44449e-014 -1.82882e-014
rhumerus -42.2098 3.62807 -93.2264
rradius 42.0879
rwrist 15.775
rhand -6.26718 -28.4449
rfingers 7.12502
rthumb 19.5755 -57.4794
lclavicle 7.44449e-014 -1.82882e-014
lhumerus -79.2864 -37.4435 102.551
lradius 102.471
lwrist -0.13181
lhand 5.84 -54.1016
lfingers 7.12502
lthumb 31.1708 -26.7328
rfemur 0 0 0
rtibia 0
rfoot 0 0
rtoes 0
lfemur 3.42656 -6.00393 -11.0292
ltibia 26.7082
lfoot -25.5885 11.2873
ltoes -56.2479
878
root -0.551221 18.4505 6.62723 -6.11454 -2.11282 -5.31332
lowerback 4.00046 4.18522 -0.659286
upperback 5.01798 5.57789 -0.215703
thorax 2.89126 2.77469 0.0658945
lowerneck -5.54373 5.93593 5.07164
upperneck 33.6836 13.9058 -17.058
head 14.1521 4.95538 -5.90657
rclavicle 9.74045e-015 -2.38542e-015
rhumerus -42.2039 3.82407 -93.2244
rradius 42.1581
rwrist 15.7553
rhand -6.31888 -28.349
rfingers 7.12502
rthumb 19.5258 -57.3885
lclavicle 9.74045e-015 -2.38542e-015
lhumerus -79.0741 -37.3693 102.481
lradius 102.42
lwrist 0.241294
lhand 5.77504 -54.2742
lfingers 7.12502
lthumb 31.1089 -26.8935
rfemur 0 0 0
rtibia 0
rfoot 0 0
rtoes 0
lfemur 3.25129 -6.06046 -10.974
ltibia 26.7352
lfoot -25.4399 11.3121
ltoes -56.3526
879
root -0.559126 18.4538 6.60577 -6.06838 -1.98029 -5.42829
lowerback 4.16246 4.20679 -0.611496
upperback 5.06477 5.60527 -0.18336
thorax 2.85079 2.78971 0.0613716
lowerneck -5.11343 6.31269 5.47793
upperneck 34.0663 14.4396 -16.8982
head 14.3439 5.26951 -5.8707
rclavicle 2.13694e-014 -4.77083e-015
rhumerus -42.2334 4.00799 -93.194
rradius 42.2639
rwrist 15.788
rhand -6.41876 -28.142
rfingers 7.12502
rthumb 19.4298 -57.1913
lclavicle 2.13694e-014 -4.77083e-015
lhumerus -79.0942 -37.3192 102.592
lradius 102.199
lwrist 1.37402
lhand 4.89823 -54.6067
lfingers 7.12502
lthumb 30.2729 -27.0692
rfemur 0 0 0
rtibia 0
rfoot 0 0
rtoes 0
lfemur 3.05626 -5.98686 -10.7573
ltibia 26.769
lfoot -25.277 11.125
ltoes -56.4086
880
root -0.566723 18.458 6.58489 -6.04609 -1.77019 -5.47698
lowerback 4.34399 4.23938 -0.571935
upperback 5.11526 5.64835 -0.208229
thorax 2.80843 2.81347 0.00128735
lowerneck -4.78022 6.64067 5.72109
upperneck 34.5973 14.8451 -16.4132
head 14.5571 5.52845 -5.68662
rclavicle -1.04362e-014 -8.74653e-015
rhumerus -42.2381 4.16185 -93.1963
rradius 42.3938
rwrist 15.7159
rhand -6.39772 -28.2631
rfingers 7.12502
rthumb 19.45 -57.3103
lclavicle -1.04362e-014 -8.74653e-015
lhumerus -79.0532 -37.3878 102.517
lradius 102.325
lwrist 1.28694
lhand 4.63718 -54.6468
lfingers 7.12502
lthumb 30.0239 -27.0638
rfemur 0 0 0
rtibia 0
rfoot 0 0
rtoes 0
lfemur 2.87422 -5.99395 -10.6274
ltibia 26.8024
lfoot -25.1249 10.949
ltoes -56.4422
881
root -0.575112 18.4635 6.56434 -6.01114 -1.53825 -5.46123
lowerback 4.45534 4.28168 -0.612569
upperback 5.20449 5.70413 -0.240962
thorax 2.83872 2.84072 -0.015589
lowerneck -4.49592 6.98371 6.00477
upperneck 35.1528 15.2373 -15.8368
head 14.7857 5.79306 -5.46873
rclavicle -1.65985e-014 2.38542e-015
rhumerus -42.1407 4.31721 -93.1718
rradius 42.5
rwrist 15.5894
rhand -6.25191 -28.5651
rfingers 7.12502
rthumb 19.5902 -57.5981
lclavicle -1.65985e-014 2.38542e-015
lhumerus -78.867 -37.4878 102.39
lradius 102.395
lwrist 1.2013
lhand 4.7082 -54.767
lfingers 7.12502
lthumb 30.0916 -27.1964
rfemur 0 0 0
rtibia 0
rfoot 0 0
rtoes 0
lfemur 2.68485 -6.17824 -10.6231
ltibia 26.8323
lfoot -25.0276 10.9686
ltoes -56.4493
882
root -0.585175 18.4688 6.54425 -5.9861 -1.37356 -5.46738
lowerback 4.52547 4.34392 -0.683516
upperback 5.31043 5.78577 -0.236962
thorax 2.90257 2.87895 0.0251741
lowerneck -4.18255 7.30326 6.34864
upperneck 35.6738 15.5932 -15.3115
head 14.9991 6.04829 -5.2861
rclavicle -4.69132e-014 5.56597e-015
rhumerus -42.0225 4.45898 -93.1294
rradius 42.5872
rwrist 15.4661
rhand -5.83677 -28.6547
rfingers 7.12502
rthumb 19.9893 -57.6465
lclavicle -4.69132e-014 5.56597e-015
lhumerus -78.6029 -37.5395 102.266
lradius 102.408
lwrist 1.16599
lhand 4.96066 -54.9243
lfingers 7.12502
lthumb 30.3325 -27.3977
rfemur 0 0 0
rtibia 0
rfoot 0 0
rtoes 0
lfemur 2.52874 -6.32694 -10.5927
ltibia 26.8537
lfoot -24.9366 11.0101
ltoes -56.4712
883
root -0.594511 18.4724 6.52382 -5.98845 -1.21039 -5.49064
lowerback 4.66087 4.41184 -0.714476
upperback 5.37544 5.87475 -0.249082
thorax 2.89303 2.92292 0.0197591
lowerneck -3.86786 7.57271 6.7067
upperneck 36.2419 15.8525 -14.7153
head 15.2135 6.2701 -5.09063
rclavicle -1.80894e-014 2.06736e-014
rhumerus -41.9601 4.50149 -93.1364
rradius 42.6486
rwrist 15.399
rhand -5.13887 -28.6084
rfingers 7.12502
rthumb 20.66 -57.5288
lclavicle -1.80894e-014 2.06736e-014
lhumerus -78.4305 -37.6304 102.185
lradius 102.382
lwrist 1.13765
lhand 5.152 -55.0195
lfingers 7.12502
lthumb 30.5149 -27.5267
rfemur 0 0 0
rtibia 0
rfoot 0 0
rtoes 0
lfemur 2.39708 -6.35368 -10.5099
ltibia 26.8668
lfoot -24.7897 10.9654
ltoes -56.593
884
root -0.602227 18.4756 6.50276 -5.9652 -0.997833 -5.51738
lowerback 4.82554 4.46861 -0.685471
upperback 5.40238 5.94996 -0.28949
thorax 2.83671 2.96289 -0.0516518
lowerneck -3.54105 7.82408 7.08087
upperneck 36.812 16.0467 -14.032
head 15.4076 6.47675 -4.86745
rclavicle 9.83984e-014 -3.10104e-014
rhumerus -41.9388 4.41377 -93.1627
rradius 42.735
rwrist 15.3859
rhand -4.75798 -28.5817
rfingers 7.12502
rthumb 21.0259 -57.4619
lclavicle 9.83984e-014 -3.10104e-014
lhumerus -78.3576 -37.7632 102.115
lradius 102.36
lwrist 1.05947
lhand 5.19639 -55.1159
lfingers 7.12502
lthumb 30.5573 -27.631
rfemur 0 0 0
rtibia 0
rfoot 0 0
rtoes 0
lfemur 2.21981 -6.42215 -10.4307
ltibia 26.8802
lfoot -24.6576 10.9373
ltoes -56.722
885
root -0.610542 18.4789 6.48277 -5.92574 -0.790483 -5.52269
lowerback 4.95141 4.51105 -0.687049
upperback 5.45333 6.00582 -0.314398
thorax 2.82241 2.99158 -0.0857268
lowerneck -3.26455 8.07687 7.3753
upperneck 37.3525 16.241 -13.3361
head 15.5919 6.67279 -4.61773
rclavicle -4.67144e-014 2.14687e-014
rhumerus -41.8895 4.33493 -93.1582
rradius 42.8663
rwrist 15.3243
rhand -4.71747 -28.5639
rfingers 7.12502
rthumb 21.0649 -57.4398
lclavicle -4.67144e-014 2.14687e-014
lhumerus -78.1115 -37.7992 101.838
lradius 102.673
lwrist -0.120695
lhand 5.71744 -55.038
lfingers 7.12502
lthumb 31.054 -27.6468
rfemur 0 0 0
rtibia 0
rfoot 0 0
rtoes 0
lfemur 2.03559 -6.53431 -10.389
ltibia 26.8961
lfoot -24.5896 10.9061
ltoes -56.7223
